<?xml version="1.0" encoding="UTF-8"?>
<svg id="Layer_2" data-name="Layer 2" xmlns="http://www.w3.org/2000/svg" viewBox="0 0 387.24 192.87">
  <defs>
    <style>
      .cls-1 {
        fill: #fbbc05;
      }

      .cls-2 {
        fill: #ea4335;
      }

      .cls-3 {
        fill: #4285f4;
      }

      .cls-4 {
        fill: #34a853;
      }
    </style>
  </defs>
  <g id="Layer_1-2" data-name="Layer 1">
    <g>
      <path class="cls-2" d="m142.35,54.69c0,14.95-11.7,25.97-26.05,25.97s-26.05-11.02-26.05-25.97,11.7-25.97,26.05-25.97,26.05,10.91,26.05,25.97Zm-11.4,0c0-9.34-6.78-15.74-14.65-15.74s-14.65,6.39-14.65,15.74,6.78,15.74,14.65,15.74,14.65-6.5,14.65-15.74Z"/>
      <path class="cls-1" d="m198.55,54.69c0,14.95-11.7,25.97-26.05,25.97s-26.05-11.02-26.05-25.97,11.7-25.97,26.05-25.97,26.05,10.91,26.05,25.97Zm-11.4,0c0-9.34-6.78-15.74-14.65-15.74s-14.65,6.39-14.65,15.74,6.78,15.74,14.65,15.74,14.65-6.5,14.65-15.74Z"/>
      <path class="cls-3" d="m254.75,54.69c0,14.95-11.7,25.97-26.05,25.97s-26.05-11.02-26.05-25.97,11.7-25.97,26.05-25.97,26.05,10.91,26.05,25.97Zm-11.4,0c0-9.34-6.78-15.74-14.65-15.74s-14.65,6.39-14.65,15.74,6.78,15.74,14.65,15.74,14.65-6.5,14.65-15.74Z"/>
      <path class="cls-4" d="m309.46,30.29v46.63c0,19.18-11.31,27.01-24.68,27.01-12.59,0-20.16-8.42-23.02-15.3l9.93-4.13c1.77,4.23,6.1,9.21,13.08,9.21,8.56,0,13.86-5.28,13.86-15.22v-3.74h-.4c-2.55,3.15-7.47,5.9-13.68,5.9-12.99,0-24.88-11.31-24.88-25.87s11.9-26.06,24.88-26.06c6.19,0,11.11,2.75,13.68,5.81h.4v-4.23h10.83Zm-10.02,24.48c0-9.14-6.1-15.83-13.86-15.83s-14.46,6.69-14.46,15.83,6.59,15.64,14.46,15.64,13.86-6.59,13.86-15.64Z"/>
      <path class="cls-2" d="m327.31,2.96v76.11h-11.12V2.96h11.12Z"/>
      <path class="cls-3" d="m370.66,63.24l8.85,5.9c-2.86,4.23-9.74,11.51-21.64,11.51-14.75,0-25.77-11.4-25.77-25.97,0-15.44,11.11-25.97,24.5-25.97s20.07,10.73,22.22,16.52l1.18,2.95-34.72,14.38c2.66,5.21,6.79,7.87,12.59,7.87s9.84-2.86,12.79-7.19h0Zm-27.25-9.34l23.21-9.64c-1.28-3.24-5.12-5.5-9.64-5.5-5.8,0-13.86,5.12-13.57,15.14Z"/>
      <path class="cls-3" d="m48.14,47.94v-11.02h37.13c.36,1.92.55,4.19.55,6.65,0,8.27-2.26,18.49-9.54,25.77-7.08,7.38-16.13,11.31-28.12,11.31-22.22,0-40.91-18.1-40.91-40.33S25.92,0,48.15,0c12.29,0,21.05,4.82,27.63,11.11l-7.77,7.77c-4.72-4.43-11.11-7.87-19.87-7.87-16.23,0-28.92,13.08-28.92,29.31s12.69,29.31,28.92,29.31c10.53,0,16.52-4.23,20.36-8.07,3.11-3.11,5.16-7.56,5.97-13.64h-26.33Z"/>
    </g>
    <g>
      <path class="cls-3" d="m0,189.1v-66.68c.21-.13.32-.27.43-.26,9.8.17,19.66-.99,29.39.83,14.19,2.65,24.34,14.43,25.28,28.89.57,8.8-.7,17.1-6.06,24.43-6.06,8.29-14.46,12.33-24.47,12.85-7.9.41-15.85.11-23.77.12-.19,0-.38-.08-.79-.18Zm11.12-10.36c5.34-.23,10.53,0,15.57-.76,8.46-1.27,14.15-6.26,16.27-14.64.8-3.15.99-6.55.9-9.82-.31-10.7-6.56-18.33-17.03-20.13-5.01-.86-10.24-.42-15.37-.56-.1,0-.2.17-.34.3v45.62Z"/>
      <path class="cls-4" d="m262.21,122.2h11.06v66.93h-10.63c-.06-1.07-.11-2.05-.18-3.21-.41.18-.8.26-1.07.49-7.94,6.44-21.49,6.35-29.79-4.23-8.88-11.32-6.68-28.93,4.78-37.28,7.17-5.23,17.14-5.28,24.35-.12.42.3.85.6,1.49,1.04v-23.62Zm.53,43.71c-.31-1.78-.4-3.64-.96-5.33-1.62-4.88-4.74-8.32-10.09-9.07-5.23-.74-9.39,1.3-12.05,5.74-3.36,5.59-3.35,11.54-.08,17.12,3.61,6.18,11.39,7.91,17.07,4.01,4.29-2.95,5.99-7.31,6.11-12.46Z"/>
      <path class="cls-2" d="m347.43,175.92c3.15-1.35,6.3-2.7,9.65-4.12.51.99.97,1.93,1.47,2.86,2.76,5.07,8.35,7.21,13.68,5.16,1.65-.63,3.38-1.37,3.55-3.47.18-2.19-1.34-3.43-3.1-4.04-2.99-1.06-6.08-1.82-9.14-2.66-4.21-1.16-8.38-2.44-11.44-5.76-5.15-5.58-4.02-14.49,2.33-19.05,8.13-5.83,21.04-5.07,28.19,1.86,1.79,1.74,3.08,4.07,4.28,6.64-3.67,1.53-6.47,2.7-9.96,4.16-1.13-3.03-3.21-5.01-6.29-5.85-2.85-.77-5.7-.83-8.24.79-.95.61-1.95,1.92-1.98,2.94-.03.87,1.13,2.21,2.07,2.6,2.42,1,5.04,1.52,7.53,2.36,3.51,1.18,7.24,2.03,10.42,3.82,8.23,4.64,9.07,15.37,2.03,21.62-9.25,8.21-29.05,7.12-34.98-9.14-.06-.18-.04-.39-.07-.73Z"/>
      <path class="cls-2" d="m280.87,122.2h10.85v66.92h-10.85v-66.92Z"/>
      <path class="cls-2" d="m109.66,165.9c0,14.95-11.7,25.97-26.05,25.97s-26.05-11.02-26.05-25.97,11.7-25.97,26.05-25.97,26.05,10.91,26.05,25.97Zm-11.4,0c0-9.34-6.78-15.74-14.65-15.74s-14.65,6.39-14.65,15.74,6.78,15.74,14.65,15.74,14.65-6.5,14.65-15.74Z"/>
      <path class="cls-1" d="m165.87,165.9c0,14.95-11.7,25.97-26.05,25.97s-26.05-11.02-26.05-25.97,11.7-25.97,26.05-25.97,26.05,10.91,26.05,25.97Zm-11.4,0c0-9.34-6.78-15.74-14.65-15.74s-14.65,6.39-14.65,15.74,6.78,15.74,14.65,15.74,14.65-6.5,14.65-15.74Z"/>
      <path class="cls-3" d="m222.07,165.9c0,14.95-11.7,25.97-26.05,25.97s-26.05-11.02-26.05-25.97,11.7-25.97,26.05-25.97,26.05,10.91,26.05,25.97Zm-11.4,0c0-9.34-6.78-15.74-14.65-15.74s-14.65,6.39-14.65,15.74,6.78,15.74,14.65,15.74,14.65-6.5,14.65-15.74Z"/>
      <path class="cls-3" d="m335.71,175.46l8.85,5.9c-2.86,4.23-9.74,11.51-21.64,11.51-14.75,0-25.77-11.4-25.77-25.97,0-15.44,11.11-25.97,24.5-25.97s20.07,10.73,22.22,16.52l1.18,2.95-34.72,14.38c2.66,5.21,6.79,7.87,12.59,7.87s9.84-2.86,12.79-7.19h0Zm-27.25-9.34l23.21-9.64c-1.28-3.24-5.12-5.5-9.64-5.5-5.8,0-13.86,5.12-13.57,15.14Z"/>
    </g>
  </g>
</svg>